<svg width="29" height="49" viewBox="0 0 29 49" fill="none" xmlns="http://www.w3.org/2000/svg">
<path d="M4.70829 5.5V43.5H24.2916V5.5H4.70829ZM2.74996 0.75H26.25C26.7693 0.75 27.2675 1.00022 27.6347 1.44562C28.002 1.89102 28.2083 2.49511 28.2083 3.125V45.875C28.2083 46.5049 28.002 47.109 27.6347 47.5544C27.2675 47.9998 26.7693 48.25 26.25 48.25H2.74996C2.23058 48.25 1.73247 47.9998 1.36521 47.5544C0.99795 47.109 0.791626 46.5049 0.791626 45.875V3.125C0.791626 2.49511 0.99795 1.89102 1.36521 1.44562C1.73247 1.00022 2.23058 0.75 2.74996 0.75ZM14.5 36.375C15.0193 36.375 15.5175 36.6252 15.8847 37.0706C16.252 37.516 16.4583 38.1201 16.4583 38.75C16.4583 39.3799 16.252 39.984 15.8847 40.4294C15.5175 40.8748 15.0193 41.125 14.5 41.125C13.9806 41.125 13.4825 40.8748 13.1152 40.4294C12.748 39.984 12.5416 39.3799 12.5416 38.75C12.5416 38.1201 12.748 37.516 13.1152 37.0706C13.4825 36.6252 13.9806 36.375 14.5 36.375Z" fill="#2B4972"/>
</svg>
