<svg width="34" height="34" viewBox="0 0 34 34" fill="none" xmlns="http://www.w3.org/2000/svg">
<path d="M17 33.6667C7.79498 33.6667 0.333313 26.205 0.333313 17C0.333313 7.79501 7.79498 0.333344 17 0.333344C26.205 0.333344 33.6666 7.79501 33.6666 17C33.6666 26.205 26.205 33.6667 17 33.6667ZM27.5916 23.5867V23.4117C27.5916 21.875 27.5916 21.1733 26.505 20.5517C26.1557 20.3537 25.7969 20.1729 25.43 20.01C24.8183 19.7317 24.4133 19.55 23.8666 18.75C23.8014 18.655 23.7369 18.5595 23.6733 18.4633C23.0983 17.5883 22.6833 16.9583 21.1033 17.2083C17.995 17.7017 17.765 18.2483 17.6283 19.1717L17.6066 19.3233C17.405 20.6733 17.3683 21.1267 17.9316 21.7183C20.04 23.93 21.3033 25.525 21.6866 26.4583C21.8733 26.9133 22.3533 28.2917 22.0233 29.655C24.0464 28.8492 25.8471 27.5708 27.275 25.9267C27.4583 25.3033 27.5916 24.5267 27.5916 23.5867ZM17 3.38834C13.1383 3.38834 9.64998 4.99834 7.17331 7.58168C7.46831 7.78668 7.72498 8.07501 7.90165 8.47168C8.24165 9.23334 8.24165 10.0183 8.24165 10.7133C8.24165 11.26 8.24165 11.78 8.41665 12.155C8.65665 12.6683 9.69331 12.8883 10.6083 13.0783C10.9366 13.1483 11.2733 13.2183 11.58 13.3033C12.4233 13.5367 13.0766 14.295 13.5983 14.9033C13.815 15.155 14.1366 15.5267 14.2983 15.62C14.3816 15.56 14.65 15.2683 14.7816 14.79C14.885 14.4233 14.855 14.1 14.7066 13.9233C13.7733 12.8233 13.825 10.7067 14.1133 9.92501C14.5666 8.69334 15.9833 8.78501 17.02 8.85168C17.4066 8.87668 17.77 8.90168 18.0433 8.86668C19.08 8.73668 19.4 7.15834 19.625 6.85001C20.1116 6.18334 21.6016 5.17834 22.525 4.55834C20.7858 3.785 18.9033 3.38636 17 3.38834Z" fill="#2B4972"/>
</svg>
