<svg width="21" height="20" viewBox="0 0 21 20" fill="none" xmlns="http://www.w3.org/2000/svg">
<path d="M16.031 14.0104L20.314 18.1147L18.899 19.471L14.617 15.3658C13.0238 16.59 11.042 17.2558 9.00001 17.253C4.03201 17.253 0 13.3884 0 8.62652C0 3.86468 4.03201 0 9.00001 0C13.968 0 18 3.86468 18 8.62652C18.0029 10.5838 17.3082 12.4833 16.031 14.0104ZM14.025 13.2992C15.2941 12.0483 16.0029 10.3714 16 8.62652C16 4.91904 12.867 1.91701 9.00001 1.91701C5.13201 1.91701 2 4.91904 2 8.62652C2 12.3331 5.13201 15.336 9.00001 15.336C10.8204 15.3388 12.5699 14.6594 13.875 13.443L14.025 13.2992ZM10.178 4.96121C9.88314 5.08888 9.62499 5.28322 9.4257 5.52755C9.22642 5.77187 9.09196 6.0589 9.03385 6.36399C8.97575 6.66908 8.99574 6.98313 9.0921 7.27919C9.18847 7.57525 9.35834 7.84448 9.58713 8.06377C9.81592 8.28307 10.0968 8.44589 10.4057 8.53825C10.7146 8.63062 11.0422 8.64978 11.3605 8.59409C11.6788 8.53839 11.9783 8.40951 12.2332 8.2185C12.4881 8.02748 12.6908 7.78004 12.824 7.49741C13.0868 8.31561 13.0564 9.19458 12.7375 9.99426C12.4186 10.7939 11.8297 11.4683 11.0646 11.91C10.2994 12.3516 9.40209 12.5351 8.51553 12.4312C7.62897 12.3272 6.80421 11.9419 6.17265 11.3366C5.54109 10.7312 5.13907 9.94067 5.03065 9.0909C4.92223 8.24113 5.11365 7.38103 5.57441 6.64764C6.03517 5.91425 6.73875 5.34977 7.57306 5.04414C8.40736 4.73851 9.32439 4.70932 10.178 4.96121Z" fill="#2B4972"/>
</svg>
