<svg width="34" height="34" viewBox="0 0 34 34" fill="none" xmlns="http://www.w3.org/2000/svg">
<path d="M17 33.6667C7.79498 33.6667 0.333313 26.205 0.333313 17C0.333313 7.79501 7.79498 0.333344 17 0.333344C26.205 0.333344 33.6666 7.79501 33.6666 17C33.6666 26.205 26.205 33.6667 17 33.6667ZM17 30.3333C20.5362 30.3333 23.9276 28.9286 26.4281 26.4281C28.9286 23.9276 30.3333 20.5362 30.3333 17C30.3333 13.4638 28.9286 10.0724 26.4281 7.57192C23.9276 5.07143 20.5362 3.66668 17 3.66668C13.4638 3.66668 10.0724 5.07143 7.57189 7.57192C5.0714 10.0724 3.66665 13.4638 3.66665 17C3.66665 20.5362 5.0714 23.9276 7.57189 26.4281C10.0724 28.9286 13.4638 30.3333 17 30.3333ZM8.66665 22.5333C12.2584 22.2753 15.6361 20.7288 18.1783 18.1783C20.7287 15.6362 22.2753 12.2584 22.5333 8.66668C23.7648 9.48714 24.7989 10.5707 25.5609 11.8392C26.3229 13.1076 26.794 14.5294 26.94 16.002C27.086 17.4745 26.9035 18.9611 26.4054 20.3546C25.9073 21.748 25.1063 23.0136 24.0599 24.0599C23.0135 25.1063 21.748 25.9074 20.3546 26.4054C18.9611 26.9035 17.4745 27.0861 16.0019 26.94C14.5294 26.794 13.1076 26.323 11.8391 25.5609C10.5707 24.7989 9.48711 23.7648 8.66665 22.5333Z" fill="#2B4972"/>
</svg>
