<svg width="46" height="46" viewBox="0 0 46 46" fill="none" xmlns="http://www.w3.org/2000/svg">
<path d="M23 0.5C35.4268 0.5 45.5 10.5733 45.5 23C45.5 35.4268 35.4268 45.5 23 45.5C10.5733 45.5 0.5 35.4268 0.5 23C0.5 10.5733 10.5733 0.5 23 0.5ZM23 5C18.2261 5 13.6477 6.89642 10.2721 10.2721C6.89642 13.6477 5 18.2261 5 23C5 27.7739 6.89642 32.3523 10.2721 35.7279C13.6477 39.1036 18.2261 41 23 41C27.7739 41 32.3523 39.1036 35.7279 35.7279C39.1036 32.3523 41 27.7739 41 23C41 18.2261 39.1036 13.6477 35.7279 10.2721C32.3523 6.89642 27.7739 5 23 5ZM27.5 18.5C28.0967 18.5 28.669 18.7371 29.091 19.159C29.5129 19.581 29.75 20.1533 29.75 20.75V29.75H26.375V38.75H19.625V29.75H16.25V20.75C16.25 20.1533 16.4871 19.581 16.909 19.159C17.331 18.7371 17.9033 18.5 18.5 18.5H27.5ZM23 7.25C24.1935 7.25 25.3381 7.72411 26.182 8.56802C27.0259 9.41193 27.5 10.5565 27.5 11.75C27.5 12.9435 27.0259 14.0881 26.182 14.932C25.3381 15.7759 24.1935 16.25 23 16.25C21.8065 16.25 20.6619 15.7759 19.818 14.932C18.9741 14.0881 18.5 12.9435 18.5 11.75C18.5 10.5565 18.9741 9.41193 19.818 8.56802C20.6619 7.72411 21.8065 7.25 23 7.25Z" fill="#2B4972"/>
</svg>
